<?xml version="1.0" encoding="utf-8"?>
<!-- Generator: Adobe Illustrator 27.5.0, SVG Export Plug-In . SVG Version: 6.00 Build 0)  -->
<svg version="1.1" xmlns="http://www.w3.org/2000/svg" xmlns:xlink="http://www.w3.org/1999/xlink" x="0px" y="0px"
	 viewBox="0 0 200 200" style="enable-background:new 0 0 200 200;" xml:space="preserve">
<style type="text/css">
	.st0{fill:#FFFFFF;stroke:#000000;stroke-width:15;stroke-linecap:round;stroke-miterlimit:10;}
	.st1{fill:none;}
	.st2{stroke:#000000;stroke-width:0.5;stroke-linecap:round;stroke-linejoin:round;stroke-miterlimit:10;}
	.st3{font-family:'Futura-Bold';}
	.st4{font-size:44px;}
	.st5{fill:none;stroke:#000000;stroke-width:8;stroke-miterlimit:10;}
	.st6{fill:none;stroke:#000000;stroke-width:6;stroke-linecap:round;stroke-linejoin:round;stroke-miterlimit:10;}
</style>
<g id="Layer_1">
</g>
<g id="Layer_2">
</g>
<g id="Layer_3">
	<path d="M100.2,79.1h18.4l-12.1,20.6c-2.1,3.7-4.2,7.7-6.4,11.9c-2.1,4.2-4.4,8.7-6.7,13.4c4.8-3.2,9.4-4.8,13.9-4.8
		c7.2,0,12.7,2.6,16.5,7.8c3.7,4.9,5.5,13.5,5.5,26.1c0,11.8-2.1,20.3-6.4,25.6c-4.3,5.1-11.2,7.7-20.9,7.7c-9.9,0-17-2.8-21.4-8.5
		c-4.4-5.7-6.6-15.1-6.6-28c0-10.9,1.7-21.2,5.2-31c1.8-4.9,4.4-10.7,7.9-17.3C90.7,95.8,95,88,100.2,79.1z M112.1,158.6
		c0-2.7-0.2-4.9-0.6-6.8c-0.4-1.9-1-3.4-1.9-4.6c-0.9-1.2-2-2-3.4-2.6c-1.4-0.5-3-0.8-4.9-0.8c-1.9,0-3.6,0.3-4.9,0.8
		c-1.4,0.5-2.5,1.4-3.4,2.6c-0.9,1.2-1.5,2.7-1.9,4.6c-0.4,1.9-0.6,4.1-0.6,6.8c0,10.1,3.6,15.1,10.8,15.1
		C108.5,173.7,112.1,168.7,112.1,158.6z"/>
	<line class="st0" x1="101.3" y1="86.6" x2="83.6" y2="86.6"/>
	<rect x="27" y="36.8" class="st1" width="146" height="46.8"/>
	<text transform="matrix(1 0 0 1 27.019 73.3242)" class="st2 st3 st4">ONYR</text>
	<circle class="st5" cx="100" cy="100" r="95"/>
	<line class="st6" x1="118.7" y1="93" x2="182.4" y2="93"/>
	<line class="st6" x1="112.1" y1="113" x2="183.7" y2="113"/>
	<line class="st6" x1="134.9" y1="133" x2="177.3" y2="133"/>
	<line class="st6" x1="138.3" y1="153" x2="165.3" y2="153"/>
	<line class="st6" x1="133.4" y1="173" x2="145.4" y2="173"/>
	<line class="st6" x1="18.3" y1="93" x2="71.2" y2="93"/>
	<line class="st6" x1="16.7" y1="113" x2="72" y2="113"/>
	<line class="st6" x1="23.7" y1="133" x2="66.9" y2="133"/>
	<line class="st6" x1="34.5" y1="153" x2="65.9" y2="153"/>
	<line class="st6" x1="56.9" y1="173" x2="70.5" y2="173"/>
</g>
</svg>
